# xmcd
#
# Track frame offsets: 
#        150
#        8848
#        31112
#        44930
#        64450
#        73533
#        83703
#
# Disc length: 1571 seconds
#
# Revision: 0
# Processed by: cddbd v1.5.2PL0 Copyright (c) Steve Scherf et al.
# Submitted via: ExactAudioCopy v0.99pb5
#
DISCID=5b062107
DTITLE=Taverna Blues Band - Taverna Blues Band
DYEAR=2009
DGENRE=Blues Rock
TTITLE0=Uvod
TTITLE1=Nor sm na tbe
TTITLE2=Moskva Petuski Tmin
TTITLE3=Spet sm sam
TTITLE4=Dans se ga bom uzgau
TTITLE5=Ti bos moja
TTITLE6=Taverna Blues
EXTD=
EXTT0=
EXTT1=
EXTT2=
EXTT3=
EXTT4=
EXTT5=
EXTT6=
PLAYORDER=
